<?xml version="1.0" encoding="utf-8"?>
<!-- Generator: Adobe Illustrator 19.2.1, SVG Export Plug-In . SVG Version: 6.00 Build 0)  -->
<svg version="1.1" id="Layer_1" xmlns="http://www.w3.org/2000/svg" xmlns:xlink="http://www.w3.org/1999/xlink" x="0px" y="0px"
	 viewBox="0 0 24 24" style="enable-background:new 0 0 24 24;" xml:space="preserve">
<style type="text/css">
	.st0{display:none;}
	.st1{display:inline;}
	.st2{fill:none;stroke:#010101;stroke-linecap:round;stroke-linejoin:round;stroke-miterlimit:10;}
	.st3{fill:none;stroke:#010101;stroke-linejoin:round;stroke-miterlimit:10;}
</style>
<g class="st0">
	<g class="st1">
		<path class="st2" d="M18.5,4.6v-2H5.5v-2h-5V16c0,0.8,0.7,1.5,1.5,1.5c0.8,0,1.5-0.7,1.5-1.5V4.6h16.9v4.5"/>
		<line class="st2" x1="2.1" y1="17.5" x2="9" y2="17.5"/>
	</g>
	<g class="st1">
		<circle class="st3" cx="17.5" cy="17.5" r="6"/>
		<line class="st2" x1="14.8" y1="17.5" x2="20.2" y2="17.5"/>
		<line class="st2" x1="17.5" y1="20.2" x2="17.5" y2="14.8"/>
	</g>
</g>
<g>
	<g>
		<path class="st2" d="M18.5,4.5v-2h-13v-2h-5V16c0,0.8,0.7,1.5,1.5,1.5c0.8,0,1.5-0.7,1.5-1.5V4.5h17V9"/>
		<line class="st2" x1="2" y1="17.5" x2="9" y2="17.5"/>
	</g>
	<g>
		<circle class="st3" cx="17.5" cy="17.5" r="6"/>
		<line class="st2" x1="14.8" y1="17.5" x2="20.2" y2="17.5"/>
	</g>
</g>
</svg>
